<svg xmlns="http://www.w3.org/2000/svg" width="32" height="32" fill="none" viewBox="-1 -1 32 32"
    id="person-black" y="4345">
    <mask id="dha" style="mask-type:alpha" maskUnits="userSpaceOnUse" x="0" y="0" width="30"
        height="30">
        <path fill="#131313" d="M0 0h30v30H0z" />
    </mask>
    <g mask="url(#dha)">
        <path
            d="M15 14.231c-1.031 0-1.914-.367-2.648-1.102-.735-.734-1.102-1.617-1.102-2.648 0-1.031.367-1.914 1.102-2.648.734-.735 1.617-1.102 2.648-1.102 1.031 0 1.914.367 2.648 1.102.735.734 1.102 1.617 1.102 2.648 0 1.031-.367 1.914-1.102 2.648-.734.735-1.617 1.102-2.648 1.102ZM6.25 23.27v-2.058c0-.516.15-1 .45-1.449.301-.45.705-.798 1.213-1.046 1.18-.566 2.36-.99 3.541-1.273A15.18 15.18 0 0 1 15 17.019c1.183 0 2.365.142 3.546.425 1.18.283 2.361.707 3.54 1.273.509.248.913.597 1.213 1.046.3.45.451.933.451 1.449v2.058H6.25Zm1.25-1.25h15v-.808c0-.277-.09-.538-.268-.782a2.157 2.157 0 0 0-.742-.617 15.863 15.863 0 0 0-3.182-1.146 13.973 13.973 0 0 0-6.616 0 15.864 15.864 0 0 0-3.182 1.146 2.157 2.157 0 0 0-.742.617 1.297 1.297 0 0 0-.268.782v.807ZM15 12.98c.688 0 1.276-.245 1.766-.734.49-.49.734-1.079.734-1.766 0-.688-.245-1.276-.734-1.766A2.407 2.407 0 0 0 15 7.981c-.688 0-1.276.245-1.766.734a2.407 2.407 0 0 0-.734 1.766c0 .688.245 1.276.734 1.766.49.49 1.079.734 1.766.734Z"
            fill="#131313" />
    </g>
</svg>