<svg xmlns="http://www.w3.org/2000/svg" width="73" height="33" fill="none" viewBox="-1 -1 73 33"
    id="bite-logo-black" y="1114">
    <path
        d="M26.977 21.482a7.342 7.342 0 0 0-.532-2.2 6.403 6.403 0 0 0-1.116-1.75 8.38 8.38 0 0 0-2.491-1.851 14.552 14.552 0 0 0-1.597-.673 7.08 7.08 0 0 0-.57-.189c-.649-.18-1.3-.353-1.964-.473-.037 0-.093 0-.091-.08.193-.036.378-.117.57-.169.484-.137.96-.302 1.426-.493a13.16 13.16 0 0 0 1.272-.584c.462-.238.904-.512 1.324-.82a6.855 6.855 0 0 0 1.275-1.212c.316-.389.577-.82.773-1.28.202-.479.337-.982.4-1.497a6.659 6.659 0 0 0-.284-2.916 5.265 5.265 0 0 0-.787-1.514 6.508 6.508 0 0 0-.903-.985 7.157 7.157 0 0 0-1.226-.88 9.457 9.457 0 0 0-1.596-.673 5.361 5.361 0 0 0-.598-.168 18.861 18.861 0 0 0-2.16-.412c-.367-.039-.732-.115-1.1-.143C15.848.429 14.696.333 13.54.338c-1.157.005-2.341-.017-3.512.017-1.11.032-2.22.08-3.33.116-1.11.035-2.237.057-3.364.09C2.342.587 1.35.62.358.653A1.145 1.145 0 0 0 0 .688v2.37c.032.01.066.017.1.021.547.007 1.094.059 1.634.153.39.057.763.199 1.092.416.393.27.582.685.718 1.132.152.552.22 1.124.205 1.696v17.668a6.87 6.87 0 0 1-.1 1.259 3.3 3.3 0 0 1-.337 1.02c-.235.403-.617.7-1.065.828a5.776 5.776 0 0 1-1.594.26c-.207.014-.414.019-.646.029v2.4a.619.619 0 0 0 .297.03h15.054c.252 0 .505 0 .755-.012 1.534-.03 3.061-.207 4.562-.525.636-.14 1.26-.332 1.867-.574a7.77 7.77 0 0 0 1.564-.841 6.999 6.999 0 0 0 1.463-1.365 6.331 6.331 0 0 0 1.29-2.86c.146-.761.186-1.539.118-2.31ZM11.392 2.956c.052-.059.116-.043.168-.043 1.038.021 2.07.06 3.09.304.766.18 1.44.634 1.895 1.276.291.391.51.832.646 1.3.101.323.175.653.22.988.107.868.107 1.745 0 2.613a5.1 5.1 0 0 1-.556 1.851c-.279.507-.7.92-1.211 1.19a4.941 4.941 0 0 1-2.131.572c-.636.032-1.273.03-1.91.032a.355.355 0 0 1-.211-.03V2.955Zm7.084 20.697a5.816 5.816 0 0 1-.69 2.01 3.312 3.312 0 0 1-1.513 1.382c-.422.185-.875.29-1.335.311a4.708 4.708 0 0 1-2.037-.255c-.62-.246-1.107-.653-1.33-1.306a4.315 4.315 0 0 1-.2-1.4v-8.476a.322.322 0 0 1 .026-.195.204.204 0 0 1 .131-.025c.851.008 1.704-.032 2.555.05a8.274 8.274 0 0 1 1.835.322c.51.165.973.454 1.346.841.464.493.809 1.085 1.009 1.732.182.597.295 1.214.336 1.837a12.377 12.377 0 0 1-.133 3.17v.002Z"
        fill="#131313" />
    <path
        d="M39.12 27.646a5.808 5.808 0 0 1-1.45-.168 1.435 1.435 0 0 1-1.08-1.079 5.822 5.822 0 0 1-.18-1.61V12.201h-.024l-10.17 1.023v2.213h.684a4.435 4.435 0 0 1 1.593.262c.225.083.418.235.553.433.114.185.204.385.266.594a5.2 5.2 0 0 1 .168 1.514v6.596c.019.52-.038 1.04-.168 1.543-.153.515-.438.907-.957 1.067-.36.118-.735.18-1.114.187-.267 0-.535 0-.8.008-.064 0-.135-.02-.189.036-.054.328-.033 2.138.027 2.291.042 0 .086.01.13.01H39.19a.3.3 0 0 0 .066-.013.056.056 0 0 0 .019-.012l.025-.028v-2.237c-.059-.064-.121-.042-.18-.042ZM32.75 8.24a3.952 3.952 0 0 0 3.958-3.949 3.955 3.955 0 0 0-3.946-3.96c-2.067 0-3.89 1.816-3.852 3.926-.044 2.07 1.633 3.988 3.84 3.983ZM51.668 28.892c.6-.412 1.158-.883 1.663-1.407.406.421.847.806 1.319 1.151a9.938 9.938 0 0 0 1.941 1.126c.61.268 1.245.476 1.896.622.875.197 1.768.301 2.666.31a12.117 12.117 0 0 0 1.924-.168 10.543 10.543 0 0 0 4.274-1.664 8.683 8.683 0 0 0 2.26-2.134.28.28 0 0 0 .069-.193l-1.943-1.188c-.054.043-.104.09-.151.141a7.42 7.42 0 0 1-.76.816c-.458.447-.981.822-1.551 1.112a5.02 5.02 0 0 1-1.473.476 5.08 5.08 0 0 1-2.07-.116 3.622 3.622 0 0 1-1.128-.518 3.924 3.924 0 0 1-1.224-1.346 7.07 7.07 0 0 1-.767-2.137c-.151-.83-.24-1.67-.264-2.512a.61.61 0 0 1 .043-.389h10.56c.444 0 .868.019 1.303-.015.024-.17.024-.343 0-.513a11.25 11.25 0 0 0-.612-3.534 7.445 7.445 0 0 0-.92-1.794 7.673 7.673 0 0 0-2.412-2.187 9.319 9.319 0 0 0-2.22-.949 11.914 11.914 0 0 0-2.65-.404c-.66-.025-1.32-.003-1.977.068-.715.075-1.419.224-2.103.444a7.805 7.805 0 0 0-.708.266 8.406 8.406 0 0 0-1.557.8 9.696 9.696 0 0 0-2.039 1.719 7.804 7.804 0 0 0-1.159 1.696 8.628 8.628 0 0 0-.763 2.264c-.091.473-.153.95-.184 1.43-.103 1.31.03 2.626.39 3.888.05.158.105.313.157.47.078.228.169.453.27.672l-.66.752c-.111.115-.224.226-.337.337 0 0-1.009 1.178-2.235 1.267a2.596 2.596 0 0 1-.484 0l-.1-.025c-.57-.18-.819-.798-.926-1.25l-.032-.169-.022-.14a11.078 11.078 0 0 1-.083-1.585v-9.961h4.321v-2.248h-4.32V6.275h-2.298c-.062.26-.13.505-.18.756a6.176 6.176 0 0 1-.789 1.948 6.729 6.729 0 0 1-1.707 1.9 6.066 6.066 0 0 1-2.092 1.05 8.053 8.053 0 0 1-1.894.25v2.23h2.018v7.42c0 1.159-.01 2.318.01 3.477.007.557.078 1.112.214 1.653.156.658.445 1.278.85 1.82a4.397 4.397 0 0 0 1.764 1.356c.478.201.98.343 1.493.421.585.1 1.178.144 1.771.13.585-.014 1.168-.07 1.744-.169a7.3 7.3 0 0 0 1.886-.575s1.41-.634 1.988-1.05Zm6.66-10.45a9.942 9.942 0 0 1 .281-2.369 3.59 3.59 0 0 1 .717-1.479c.32-.377.77-.623 1.26-.69a2.29 2.29 0 0 1 1.41.2c.372.188.683.48.896.84a5.64 5.64 0 0 1 .728 2.437c.032.337.06.673.087 1.01a.443.443 0 0 1-.026.244h-5.305c-.066-.056-.047-.127-.047-.192Z"
        fill="#131313" />
</svg>